<svg 
 xmlns="http://www.w3.org/2000/svg"
 xmlns:xlink="http://www.w3.org/1999/xlink"
 width="14px" height="14px">
<path fill-rule="evenodd"  fill="rgb(62, 74, 67)"
 d="M14.000,6.984 L14.000,6.984 L14.000,6.984 C14.000,7.982 12.969,8.356 12.969,8.356 C12.969,8.356 2.688,13.252 2.000,13.626 C1.312,14.000 1.000,13.969 1.000,13.969 C0.448,13.969 -0.000,13.522 -0.000,12.971 L-0.000,6.984 L-0.000,0.998 C-0.000,0.447 0.448,-0.000 1.000,-0.000 C1.000,-0.000 1.312,-0.031 2.000,0.343 C2.688,0.717 12.969,5.612 12.969,5.612 C12.969,5.612 14.000,5.987 14.000,6.984 L14.000,6.984 L14.000,6.984 Z"/>
</svg>